<svg xmlns="http://www.w3.org/2000/svg" width="15.563" height="16.073" viewBox="0 0 15.563 16.073">
  <g id="Group_377" data-name="Group 377" transform="translate(-48.96 -208.631)">
    <g id="fast-food" transform="translate(48.96 208.631)">
      <g id="Group_321" data-name="Group 321" transform="translate(7.143 4.592)">
        <g id="Group_320" data-name="Group 320">
          <path id="Path_778" data-name="Path 778" d="M205.81,122.961a.255.255,0,0,0-.185-.079h-7.4a.255.255,0,0,0-.255.267l.184,3.962a.255.255,0,1,0,.51-.024l-.172-3.7h6.864l-.487,10.46h-5.73a.255.255,0,1,0,0,.51h5.973a.255.255,0,0,0,.255-.243l.51-10.97A.255.255,0,0,0,205.81,122.961Z" transform="translate(-197.972 -122.882)" fill="#fff"/>
        </g>
      </g>
      <g id="Group_323" data-name="Group 323" transform="translate(0.765 14.032)">
        <g id="Group_322" data-name="Group 322" transform="translate(0)">
          <path id="Path_779" data-name="Path 779" d="M36.748,375.469H27.563a.255.255,0,0,0-.255.255,1.788,1.788,0,0,0,1.786,1.786h6.123A1.788,1.788,0,0,0,37,375.724.255.255,0,0,0,36.748,375.469ZM35.217,377H29.094a1.278,1.278,0,0,1-1.25-1.02h8.623A1.278,1.278,0,0,1,35.217,377Z" transform="translate(-27.308 -375.469)" fill="#fff"/>
        </g>
      </g>
      <g id="Group_325" data-name="Group 325" transform="translate(0 12.501)">
        <g id="Group_324" data-name="Group 324" transform="translate(0)">
          <path id="Path_780" data-name="Path 780" d="M17.033,334.509H7.849a1.021,1.021,0,1,0,0,2.041h9.184a1.021,1.021,0,1,0,0-2.041Zm0,1.531H7.849a.51.51,0,1,1,0-1.02h9.184a.51.51,0,1,1,0,1.02Z" transform="translate(-6.828 -334.509)" fill="#fff"/>
        </g>
      </g>
      <g id="Group_327" data-name="Group 327" transform="translate(8.492 7.654)">
        <g id="Group_326" data-name="Group 326">
          <path id="Path_781" data-name="Path 781" d="M236.53,204.8a2.55,2.55,0,0,0-2.47,1.912.255.255,0,1,0,.494.128,2.04,2.04,0,1,1,1.3,2.436.255.255,0,0,0-.17.481,2.551,2.551,0,1,0,.852-4.957Z" transform="translate(-234.051 -204.802)" fill="#fff"/>
        </g>
      </g>
      <g id="Group_329" data-name="Group 329" transform="translate(0.765 8.419)">
        <g id="Group_328" data-name="Group 328">
          <path id="Path_782" data-name="Path 782" d="M32.666,225.282H31.645a4.342,4.342,0,0,0-4.337,4.337.255.255,0,0,0,.255.255h9.184a.255.255,0,0,0,.255-.255A4.342,4.342,0,0,0,32.666,225.282Zm-4.839,4.082a3.832,3.832,0,0,1,3.818-3.572h1.021a3.832,3.832,0,0,1,3.818,3.572Z" transform="translate(-27.308 -225.282)" fill="#fff"/>
        </g>
      </g>
      <g id="Group_331" data-name="Group 331" transform="translate(3.061 9.95)">
        <g id="Group_330" data-name="Group 330" transform="translate(0)">
          <rect id="Rectangle_223" data-name="Rectangle 223" width="0.51" height="0.51" fill="#fff"/>
        </g>
      </g>
      <g id="Group_333" data-name="Group 333" transform="translate(2.806 10.97)">
        <g id="Group_332" data-name="Group 332" transform="translate(0)">
          <rect id="Rectangle_224" data-name="Rectangle 224" width="0.51" height="0.51" fill="#fff"/>
        </g>
      </g>
      <g id="Group_335" data-name="Group 335" transform="translate(5.868 9.695)">
        <g id="Group_334" data-name="Group 334" transform="translate(0)">
          <rect id="Rectangle_225" data-name="Rectangle 225" width="0.51" height="0.51" fill="#fff"/>
        </g>
      </g>
      <g id="Group_337" data-name="Group 337" transform="translate(7.399 10.97)">
        <g id="Group_336" data-name="Group 336">
          <rect id="Rectangle_226" data-name="Rectangle 226" width="0.51" height="0.51" fill="#fff"/>
        </g>
      </g>
      <g id="Group_339" data-name="Group 339" transform="translate(5.102 11.225)">
        <g id="Group_338" data-name="Group 338" transform="translate(0)">
          <rect id="Rectangle_227" data-name="Rectangle 227" width="0.51" height="0.51" fill="#fff"/>
        </g>
      </g>
      <g id="Group_341" data-name="Group 341" transform="translate(6.378 3.572)">
        <g id="Group_340" data-name="Group 340">
          <path id="Path_783" data-name="Path 783" d="M186.423,95.576h-8.674a.255.255,0,0,0-.255.255v1.021a.255.255,0,0,0,.255.255h8.674a.255.255,0,0,0,.255-.255V95.831A.255.255,0,0,0,186.423,95.576Zm-.255,1.02H178v-.51h8.164Z" transform="translate(-177.494 -95.576)" fill="#fff"/>
        </g>
      </g>
      <g id="Group_343" data-name="Group 343" transform="translate(7.398 0)">
        <g id="Group_342" data-name="Group 342" transform="translate(0 0)">
          <path id="Path_784" data-name="Path 784" d="M206.068,3.774,205.3.2a.255.255,0,0,0-.5.107l.765,3.572a.255.255,0,0,0,.249.2.249.249,0,0,0,.054-.006A.255.255,0,0,0,206.068,3.774Z" transform="translate(-204.798 -0.001)" fill="#fff"/>
        </g>
      </g>
    </g>
  </g>
</svg>
