<svg xmlns="http://www.w3.org/2000/svg" width="6.744" height="11.842" viewBox="0 0 6.744 11.842">
  <g id="Group_508" data-name="Group 508" transform="translate(-31 -434.488)">
    <rect id="Rectangle_304" data-name="Rectangle 304" width="0.426" height="1.874" transform="translate(36.111 435.776)" fill="#ff9a26"/>
    <g id="fridge_1_" data-name="fridge (1)" transform="translate(31 434.488)">
      <path id="Path_895" data-name="Path 895" d="M34.327,4.086V.74A.626.626,0,0,0,33.7.115H28.208a.626.626,0,0,0-.625.625V4.086a.623.623,0,0,0,.207.463.623.623,0,0,0-.207.463v5.66a.626.626,0,0,0,.625.625h.085v.5a.162.162,0,0,0,.162.162h1.157a.162.162,0,0,0,.162-.162v-.5h2.361v.5a.162.162,0,0,0,.162.162h1.157a.162.162,0,0,0,.162-.162v-.5H33.7a.626.626,0,0,0,.625-.625V5.012a.623.623,0,0,0-.207-.463.623.623,0,0,0,.207-.463ZM29.45,11.633h-.833V11.3h.833Zm3.843,0H32.46V11.3h.833ZM34,5.012v5.66a.3.3,0,0,1-.3.3H28.208a.3.3,0,0,1-.3-.3V5.012a.3.3,0,0,1,.3-.3H33.7a.3.3,0,0,1,.3.3Zm-5.8-.625a.3.3,0,0,1-.3-.3V.74a.3.3,0,0,1,.3-.3H33.7a.3.3,0,0,1,.3.3V4.086a.3.3,0,0,1-.3.3Z" transform="translate(-27.583 -0.115)"/>
      <path id="Path_896" data-name="Path 896" d="M81.172,12.682h-.6a.162.162,0,0,0-.162.162v1.945a.162.162,0,0,0,.162.162h.6a.162.162,0,0,0,.162-.162V12.844A.162.162,0,0,0,81.172,12.682Zm-.162,1.945h-.278v-1.62h.278Z" transform="translate(-75.517 -11.518)"/>
      <path id="Path_897" data-name="Path 897" d="M80.57,58.527h.6a.162.162,0,0,0,.162-.162V56.42a.162.162,0,0,0-.162-.162h-.6a.162.162,0,0,0-.162.162v1.945A.162.162,0,0,0,80.57,58.527Zm.162-1.945h.278V58.2h-.278Z" transform="translate(-75.517 -51.059)"/>
    </g>
  </g>
</svg>
