<svg xmlns="http://www.w3.org/2000/svg" width="8" height="8" viewBox="0 0 8 8">
  <g id="Group_359" data-name="Group 359" transform="translate(-212 -266)">
    <circle id="Ellipse_48" data-name="Ellipse 48" cx="1" cy="1" r="1" transform="translate(215 269)" fill="#51c452"/>
    <g id="Path_788" data-name="Path 788" transform="translate(212 266)" fill="none">
      <path d="M1,0H7A1,1,0,0,1,8,1V7A1,1,0,0,1,7,8H1A1,1,0,0,1,0,7V1A1,1,0,0,1,1,0Z" stroke="none"/>
      <path d="M 1 1 L 1 7 L 7 7 L 7 1 L 1 1 M 1 0 L 7 0 C 7.552279949188232 0 8 0.4477200508117676 8 1 L 8 7 C 8 7.552279949188232 7.552279949188232 8 7 8 L 1 8 C 0.4477200508117676 8 0 7.552279949188232 0 7 L 0 1 C 0 0.4477200508117676 0.4477200508117676 0 1 0 Z" stroke="none" fill="#51c452"/>
    </g>
  </g>
</svg>
