<svg xmlns="http://www.w3.org/2000/svg" width="15" height="16.272" viewBox="0 0 15 16.272">
  <g id="Set_time-01" transform="translate(-23.8 -4.1)">
    <g id="Group_1538" data-name="Group 1538" transform="translate(23.8 4.1)">
      <g id="Group_1537" data-name="Group 1537" transform="translate(0 0)">
        <path id="Path_3456" data-name="Path 3456" d="M37.264,20.04a.633.633,0,0,0,.407-.149l1.724-1.44a.635.635,0,0,0-.814-.975l-1.724,1.44a.636.636,0,0,0,.407,1.124Z" transform="translate(-36.215 -16.902)"/>
        <path id="Path_3457" data-name="Path 3457" d="M382.826,18.552l1.724,1.44a.632.632,0,0,0,.895-.081.635.635,0,0,0-.081-.894l-1.724-1.44a.635.635,0,0,0-.814.975Z" transform="translate(-371.01 -16.998)"/>
        <path id="Path_3458" data-name="Path 3458" d="M36.6,7.568a7.435,7.435,0,0,0-4.7-2.173V4.736a.636.636,0,1,0-1.272,0V5.4A7.5,7.5,0,0,0,26,18.173q.2.2.407.378l-.51.859a.636.636,0,0,0,.22.872.631.631,0,0,0,.869-.22l.452-.759a7.518,7.518,0,0,0,7.728,0l.452.759a.633.633,0,0,0,.546.31.619.619,0,0,0,.323-.09.636.636,0,0,0,.22-.872l-.794-1.334a.631.631,0,0,0-.42-.3.651.651,0,0,0-.5.11,6.214,6.214,0,1,1,1.776-2.022.635.635,0,0,0,1.114.61A7.488,7.488,0,0,0,36.6,7.568Z" transform="translate(-23.8 -4.1)"/>
        <path id="Path_3459" data-name="Path 3459" d="M235.936,131a.635.635,0,0,0-.636.636v4.037a.636.636,0,0,0,.187.449l1.8,1.8a.639.639,0,0,0,.449.187.626.626,0,0,0,.449-.187.633.633,0,0,0,0-.9l-1.611-1.611v-3.775A.635.635,0,0,0,235.936,131Z" transform="translate(-228.47 -126.902)" fill="#ff941a"/>
      </g>
    </g>
  </g>
</svg>
